<?xml version="1.0" encoding="UTF-8" standalone="no"?>
<!-- Created with Inkscape (http://www.inkscape.org/) -->

<svg
   width="152.15269mm"
   height="27.16383mm"
   viewBox="0 0 152.15269 27.16383"
   version="1.1"
   id="svg1"
   xmlns="http://www.w3.org/2000/svg"
   xmlns:svg="http://www.w3.org/2000/svg">
  <defs
     id="defs1" />
  <g
     id="layer1"
     transform="translate(-22.477189,-151.08485)">
    <g
       id="text1"
       style="font-style:italic;font-weight:500;font-size:35.2777px;font-family:'Noto Sans';-inkscape-font-specification:'Noto Sans Medium Italic';text-align:center;letter-spacing:-2.64583px;text-anchor:middle;fill:#1a1a1a;stroke-width:0.264583"
       aria-label="NextTwind">
      <path
         style="font-style:normal;-inkscape-font-specification:'Noto Sans Medium'"
         d="M 43.149921,177.8959 H 38.528542 L 25.793293,157.54067 h -0.141111 q 0.07056,1.41111 0.176389,3.24555 0.105833,1.79916 0.105833,3.70416 V 177.8959 H 22.47719 v -25.18827 h 4.5861 l 12.699972,20.2494 h 0.105833 q -0.03528,-0.74083 -0.105833,-1.86972 -0.03528,-1.12889 -0.07056,-2.39888 -0.03528,-1.30528 -0.07055,-2.43417 v -13.54663 h 3.52777 z m 11.147784,-19.36745 q 3.739436,0 5.891376,2.32833 2.151939,2.29305 2.151939,6.27943 v 2.08138 H 49.570494 q 0.07056,2.89277 1.552218,4.44499 1.481664,1.55222 4.162769,1.55222 1.799162,0 3.21027,-0.3175 1.446386,-0.35278 2.928049,-1.02305 v 3.10443 q -1.446385,0.635 -2.928049,0.9525 -1.446385,0.3175 -3.457214,0.3175 -2.751661,0 -4.868323,-1.09361 -2.081384,-1.09361 -3.280825,-3.24555 -1.164165,-2.18721 -1.164165,-5.39748 0,-3.175 1.058331,-5.39749 1.093609,-2.2225 2.998605,-3.38666 1.940273,-1.19944 4.515545,-1.19944 z m 0.03528,2.89277 q -2.046107,0 -3.245548,1.30527 -1.199442,1.30528 -1.446386,3.70416 h 8.960535 q -0.03528,-2.22249 -1.093608,-3.59832 -1.023053,-1.41111 -3.174993,-1.41111 z m 13.687709,6.77332 -6.455819,-9.31331 h 4.268602 l 4.515545,6.84387 4.515546,-6.84387 h 4.233323 l -6.455818,9.31331 6.773318,9.70136 h -4.233324 l -4.833045,-7.2672 -4.868322,7.2672 h -4.233324 z m 19.01465,7.02026 q 0.740832,0 1.516941,-0.10583 0.77611,-0.14111 1.340553,-0.35278 v 2.82222 q -0.634999,0.28222 -1.658052,0.45861 -0.987776,0.21166 -2.010829,0.21166 -1.552219,0 -2.857494,-0.52916 -1.305274,-0.52917 -2.081384,-1.83444 -0.740831,-1.30528 -0.740831,-3.63361 V 161.73872 H 77.89842 v -1.69333 l 2.786938,-1.41111 1.305275,-4.02166 h 2.293051 v 4.26861 h 5.432765 v 2.85749 h -5.432765 v 10.4422 q 0,1.55222 0.740831,2.29305 0.77611,0.74083 2.010829,0.74083 z"
         id="path3" />
      <path
         d="m 93.244195,177.8959 4.621378,-21.90745 h -6.667485 l 0.740832,-3.28082 h 17.10968 l -0.67027,3.28082 h -6.66749 l -4.621376,21.90745 z"
         id="path4" />
      <path
         style="font-style:normal;-inkscape-font-specification:'Noto Sans Medium'"
         d="m 119.24386,168.37093 q -0.28222,-0.91722 -0.59972,-2.11667 -0.28222,-1.19944 -0.52916,-2.25777 -0.24695,-1.09361 -0.38806,-1.65805 h -0.14111 q -0.10583,0.56444 -0.35278,1.65805 -0.24694,1.09361 -0.56444,2.29305 -0.28222,1.19944 -0.56444,2.11666 l -2.82222,9.45443 h -4.16277 l -5.25637,-19.01468 h 3.80999 l 2.46944,9.63081 q 0.38805,1.48166 0.70555,3.17499 0.35278,1.65805 0.49389,2.68111 h 0.14111 q 0.10583,-0.59972 0.28222,-1.5875 0.21167,-0.98778 0.42333,-1.97555 0.24695,-1.02305 0.45861,-1.65805 l 3.03388,-10.26581 h 4.09222 l 2.96332,10.26581 q 0.21167,0.70555 0.45861,1.69333 0.24695,0.95249 0.42334,1.90499 0.21166,0.91722 0.28222,1.5875 h 0.14111 q 0.0705,-0.56444 0.24694,-1.55222 0.17639,-0.98778 0.42334,-2.11666 0.28222,-1.12889 0.52916,-2.15194 l 2.54,-9.63081 h 3.77471 l -5.32693,19.01468 h -4.2686 z m 14.85188,-16.72163 q 0.84666,0 1.48166,0.49388 0.635,0.49389 0.635,1.65806 0,1.12888 -0.635,1.65805 -0.635,0.49389 -1.48166,0.49389 -0.88194,0 -1.51694,-0.49389 -0.635,-0.52917 -0.635,-1.65805 0,-1.16417 0.635,-1.65806 0.635,-0.49388 1.51694,-0.49388 z m 1.83444,7.23193 v 19.01467 h -3.73944 v -19.01467 z m 12.77054,-0.35278 q 3.35138,0 5.07999,1.65805 1.76389,1.65805 1.76389,5.32693 v 12.38247 h -3.70416 v -11.8533 q 0,-4.40971 -3.91583,-4.40971 -2.92805,0 -4.02166,1.7286 -1.0936,1.72861 -1.0936,4.93888 v 9.59553 h -3.73944 v -19.01467 h 2.96333 l 0.52916,2.57527 h 0.17639 q 0.9525,-1.48167 2.54,-2.18722 1.58749,-0.74083 3.42193,-0.74083 z m 16.40415,19.72023 q -3.42193,0 -5.50332,-2.46944 -2.08138,-2.46944 -2.08138,-7.37304 0,-4.86832 2.08138,-7.37304 2.11667,-2.50471 5.57388,-2.50471 2.15194,0 3.49249,0.81139 1.37583,0.81138 2.25777,1.97555 h 0.17639 q -0.0705,-0.49389 -0.14111,-1.44639 -0.0705,-0.98777 -0.0705,-1.65805 v -7.1261 h 3.73943 v 26.81105 h -2.96332 l -0.635,-2.53999 h -0.14111 q -0.84667,1.23472 -2.2225,2.08138 -1.37583,0.81139 -3.56305,0.81139 z m 0.91722,-3.06916 q 2.75167,0 3.84527,-1.51694 1.12889,-1.55222 1.12889,-4.65666 v -0.52916 q 0,-3.3161 -1.05833,-5.07999 -1.05833,-1.76388 -3.9511,-1.76388 -2.29305,0 -3.45722,1.83444 -1.16416,1.83444 -1.16416,5.04471 0,3.21027 1.16416,4.93887 1.16417,1.72861 3.49249,1.72861 z"
         id="path5" />
    </g>
  </g>
</svg>
